# xmcd
#
# Track frame offsets:
#	150
#	13287
#	21845
#	32959
#	45315
#	56688
#	66935
#	79420
#	93799
#	104985
#	118224
#	126937
#	135497
#	144467
#
# Disc length: 2075 seconds
#
# Revision: 0
# Processed by: cddbd v1.5.1PL0 Copyright (c) Steve Scherf et al.
# Submitted via: dBpowerAMP V4.0
#
DISCID=cd08190e
DTITLE=Jerry Lee Lewis - I Am What I Am
DYEAR=1900
DGENRE=Rock and Roll
TTITLE0=Whole Lotta Shakin' Goin' On
TTITLE1=Great Balls Of Fire
TTITLE2=Big Legged Woman
TTITLE3=Breathless
TTITLE4=High School Confidential
TTITLE5=I'm Crazy Throwing Rice (at the girl I love)
TTITLE6=Crazy Arms
TTITLE7=That Lucky Ole Sun
TTITLE8=What'd I Say
TTITLE9=Sweet Little Sixteen
TTITLE10=Johnny B Goode
TTITLE11=Wild One (Real Wild Child)
TTITLE12=Jailhouse Rock
TTITLE13=Be Bop A Lula
EXTD=
EXTT0=
EXTT1=
EXTT2=
EXTT3=
EXTT4=
EXTT5=
EXTT6=
EXTT7=
EXTT8=
EXTT9=
EXTT10=
EXTT11=
EXTT12=
EXTT13=
PLAYORDER=
